<svg width="135" height="21" viewBox="0 0 135 21" fill="none" xmlns="http://www.w3.org/2000/svg">
    <path d="M4.805 3.87H0V.935h13.086v2.937H8.281v12.635H4.805V3.871zM24.765 5.695c.88.89 1.321 2.209 1.321 3.96v6.851H22.74V10.19c0-.95-.2-1.66-.601-2.127-.401-.467-.98-.702-1.738-.702-.843 0-1.517.27-2.016.814-.5.54-.751 1.344-.751 2.412v5.917h-3.347V0h3.347v5.784c.444-.46.98-.81 1.609-1.055a5.627 5.627 0 0 1 2.06-.369c1.43 0 2.586.445 3.462 1.335zM39.494 11.501h-8.731c.156.74.53 1.328 1.115 1.757.586.43 1.315.646 2.188.646.601 0 1.134-.093 1.6-.28a3.77 3.77 0 0 0 1.297-.88l1.78 2.002c-1.088 1.29-2.675 1.935-4.762 1.935-1.303 0-2.452-.264-3.454-.788-1.002-.528-1.775-1.259-2.317-2.193-.543-.934-.815-1.996-.815-3.181 0-1.173.27-2.228.803-3.172a5.74 5.74 0 0 1 2.21-2.202c.937-.527 1.982-.791 3.14-.791 1.131 0 2.152.25 3.068.756a5.436 5.436 0 0 1 2.158 2.167c.52.941.784 2.038.784 3.283 0 .051-.021.363-.064.941zm-7.83-3.849c-.515.445-.83 1.052-.944 1.825h5.685c-.114-.757-.43-1.36-.944-1.815-.515-.451-1.143-.677-1.888-.677-.76 0-1.394.223-1.91.667z" fill="#0039FF"/>
    <path d="M52.632 9.833c.392.623.588 1.34.588 2.158 0 .963-.263 1.805-.794 2.523-.53.718-1.271 1.274-2.23 1.668-.96.394-2.066.588-3.326.588-1.26 0-2.362-.197-3.313-.588-.95-.394-1.688-.95-2.21-1.668-.52-.718-.78-1.56-.78-2.523 0-.817.196-1.535.588-2.158.392-.623.956-1.128 1.685-1.513a3.725 3.725 0 0 1-1.287-1.347c-.3-.54-.45-1.16-.45-1.856 0-.906.242-1.691.73-2.358.486-.668 1.164-1.183 2.037-1.548.873-.362 1.873-.544 3.003-.544 1.144 0 2.158.182 3.038.544.879.362 1.562.88 2.05 1.548.487.667.73 1.452.73 2.358 0 .696-.151 1.315-.451 1.856-.3.54-.736.991-1.309 1.347.739.385 1.309.89 1.7 1.513zm-3.69 3.68c.509-.407.76-.954.76-1.637s-.254-1.223-.76-1.624c-.509-.4-1.198-.6-2.072-.6-.858 0-1.538.2-2.038.6-.5.4-.75.94-.75 1.624 0 .696.25 1.246.75 1.646.5.4 1.18.601 2.038.601.877.003 1.566-.2 2.072-.61zm-3.754-9.677c-.423.35-.635.826-.635 1.436 0 .595.209 1.062.623 1.402.413.34.98.511 1.694.511s1.288-.171 1.717-.511c.429-.34.643-.807.643-1.402 0-.607-.214-1.087-.643-1.436-.43-.35-1.003-.521-1.717-.521-.698 0-1.26.175-1.682.52zM64.786 13.17h-6.972l-1.33 3.336h-3.56L59.615.934h3.433l6.714 15.572h-3.647l-1.33-3.337zm-1.094-2.737-2.381-5.962-2.381 5.962h4.762z" fill="#FF7E00"/>
    <path d="M82.57 4.538v9.966c0 2.196-.551 3.827-1.652 4.894C79.818 20.466 78.21 21 76.092 21c-1.116 0-2.173-.14-3.175-.423-1.002-.283-1.83-.69-2.489-1.223l1.33-2.492c.488.417 1.1.744 1.845.989a7.104 7.104 0 0 0 2.231.368c1.159 0 2.014-.27 2.565-.813.552-.54.825-1.36.825-2.457v-.512c-.874.995-2.087 1.49-3.647 1.49-1.058 0-2.029-.24-2.909-.724a5.433 5.433 0 0 1-2.093-2.034c-.515-.873-.772-1.884-.772-3.025 0-1.14.257-2.151.772-3.025a5.39 5.39 0 0 1 2.093-2.034c.88-.483 1.848-.725 2.909-.725 1.673 0 2.945.572 3.818 1.713V4.538h3.175zm-4.152 7.729c.563-.54.849-1.25.849-2.126 0-.874-.282-1.583-.85-2.126-.563-.54-1.29-.81-2.175-.81-.886 0-1.615.27-2.188.81-.573.54-.859 1.249-.859 2.126 0 .874.286 1.582.859 2.126.573.54 1.302.813 2.188.813.885 0 1.612-.27 2.176-.813zM96.064 11.501h-8.731c.156.74.53 1.328 1.115 1.757.586.43 1.315.646 2.189.646.6 0 1.133-.093 1.596-.28a3.81 3.81 0 0 0 1.3-.88l1.78 2.002c-1.088 1.29-2.675 1.935-4.762 1.935-1.303 0-2.452-.264-3.454-.788-1.002-.528-1.774-1.259-2.317-2.193-.542-.934-.815-1.996-.815-3.181 0-1.173.27-2.228.803-3.172a5.74 5.74 0 0 1 2.21-2.202c.937-.527 1.982-.791 3.14-.791 1.132 0 2.152.25 3.068.756a5.437 5.437 0 0 1 2.158 2.167c.52.941.781 2.038.781 3.283.003.051-.018.363-.061.941zm-7.83-3.849c-.515.445-.83 1.052-.944 1.825h5.685c-.113-.757-.43-1.36-.944-1.815-.515-.451-1.143-.677-1.888-.677-.76 0-1.394.223-1.91.667zM107.979 5.695c.88.89 1.318 2.209 1.318 3.96v6.851h-3.347v-6.318c0-.95-.199-1.658-.6-2.126-.402-.467-.981-.702-1.738-.702-.843 0-1.517.27-2.017.814-.499.54-.75 1.344-.75 2.412v5.917h-3.347V4.538h3.196V5.94a4.414 4.414 0 0 1 1.652-1.167 5.595 5.595 0 0 1 2.167-.413c1.431 0 2.587.445 3.466 1.335zM113.728 15.896a5.804 5.804 0 0 1-2.295-2.193c-.552-.934-.824-1.995-.824-3.18 0-1.186.275-2.248.824-3.182a5.805 5.805 0 0 1 2.295-2.193c.981-.527 2.084-.791 3.316-.791 1.217 0 2.277.264 3.185.791a4.64 4.64 0 0 1 1.985 2.257l-2.595 1.446c-.601-1.097-1.465-1.647-2.596-1.647-.874 0-1.594.296-2.167.89-.573.595-.858 1.402-.858 2.425s.285 1.83.858 2.425c.573.594 1.293.89 2.167.89 1.143 0 2.01-.55 2.596-1.647l2.595 1.469a4.694 4.694 0 0 1-1.985 2.224c-.908.534-1.971.801-3.185.801-1.232.003-2.335-.26-3.316-.785z" fill="#0039FF"/>
    <path d="m135 4.538-5.213 12.702c-.53 1.38-1.183 2.352-1.964 2.915-.779.562-1.72.845-2.823.845a5.625 5.625 0 0 1-1.78-.29c-.586-.193-1.067-.46-1.438-.8l1.223-2.47c.257.239.555.423.892.557.337.133.668.2.996.2.456 0 .83-.114 1.115-.343.285-.23.543-.61.773-1.144l.043-.111-4.999-12.058h3.454l3.239 8.12 3.261-8.12H135v-.003z" fill="#0039FF"/>
</svg>
