<svg xmlns="http://www.w3.org/2000/svg" width="300" height="300" viewBox="0 0 300 300"><g transform="translate(-511 -205)"><rect width="300" height="300" transform="translate(511 205)" fill="#f8f8f8"/><g transform="translate(-0.442)"><g transform="translate(564.442 317.684)"><path d="M134.646,27.391c-.538-3.433-2.631-5.965-6.819-5.965a6.91,6.91,0,0,0-7.294,5.965Zm-6.159,10.245a10.115,10.115,0,0,0,7.116-2.712l3.528,3.736c-2.333,2.351-5.562,4.1-10.584,4.1-8.612,0-14.172-5.6-14.172-13.2a13.06,13.06,0,0,1,13.392-13.2c8.552,0,13.4,6.387,12.977,15.245H120.534c.716,3.678,3.347,6.027,7.953,6.027ZM0,36.17,15.49,21.094H.362v-4.73h22.3v4.828L7.177,36.268h15.7V41H0Zm44.906-8.779c-.538-3.433-2.631-5.965-6.819-5.965a6.91,6.91,0,0,0-7.294,5.965ZM38.747,37.636a10.115,10.115,0,0,0,7.116-2.712l3.528,3.736c-2.333,2.351-5.562,4.1-10.584,4.1-8.612,0-14.172-5.6-14.172-13.2a13.06,13.06,0,0,1,13.392-13.2c8.552,0,13.4,6.387,12.977,15.245H30.793c.716,3.678,3.349,6.027,7.953,6.027Z" transform="translate(0 -5.806)" fill="#02363d" fill-rule="evenodd"/><g transform="translate(84.842 0.468)"><path d="M21.349,24.341a7.776,7.776,0,1,0-15.546,0,7.777,7.777,0,1,0,15.546,0m-20.76.049c0-7.89,5.853-12.821,12.3-12.821a10.573,10.573,0,0,1,8.166,3.7V.725h5.217V36.717H21.053v-3.4a10.451,10.451,0,0,1-8.217,3.894A12.385,12.385,0,0,1,.589,24.391" transform="translate(-0.589 -0.725)" fill="#02363d" fill-rule="evenodd"/></g><path d="M175.254,31.075l4.814-2.534a7.128,7.128,0,0,0,6.421,3.7c3.009,0,4.564-1.57,4.564-3.343,0-2.027-2.909-2.483-6.071-3.141-4.264-.913-8.675-2.331-8.675-7.549,0-4,3.76-7.7,9.678-7.649,4.667,0,8.129,1.872,10.083,4.913L191.6,17.953a6.453,6.453,0,0,0-5.617-2.886c-2.859,0-4.313,1.416-4.313,3.039,0,1.823,2.305,2.33,5.918,3.139,4.112.913,8.777,2.28,8.777,7.549,0,3.5-3.009,8.209-10.132,8.158-5.216,0-8.877-2.129-10.984-5.877m35.74-5.36-4.132,4.656v6.581h-5.214V0h5.214V24.195L217.93,11.642h6.347l-9.593,10.832,9.84,14.478h-5.9ZM98.71,10.558c-6.226,0-11.438,4.242-11.438,11.281V36.952H92.61V22.537c0-4.241,2.319-6.782,6.271-6.782s5.93,2.541,5.93,6.782V36.952h5.337V21.839c0-7.038-5.214-11.281-11.438-11.281" transform="translate(-30.965)" fill="#02363d" fill-rule="evenodd"/></g></g><text transform="translate(589 382)" fill="#02363d" font-size="17" font-family="ProximaNova-Regular, Proxima Nova"><tspan x="0" y="0">image doesn&apos;t exist</tspan></text></g></svg>