<svg xmlns="http://www.w3.org/2000/svg" xmlns:xlink="http://www.w3.org/1999/xlink" width="110" height="21" viewBox="0 0 110 21">
    <defs>
        <path id="8n9f7qqima" d="M0.216 0.266L14.811 0.266 14.811 20.999 0.216 20.999z"/>
    </defs>
    <g fill="none" fill-rule="evenodd">
        <g>
            <g>
                <path fill="#02363D" d="M76.52 12.267c-.306-1.951-1.495-3.39-3.875-3.39-2.209 0-3.738 1.232-4.145 3.39h8.02zm-3.5 5.822c1.869 0 3.228-.753 4.044-1.541l2.005 2.123C77.743 20.007 75.908 21 73.054 21 68.16 21 65 17.816 65 13.5 65 9.22 68.33 6 72.611 6c4.86 0 7.613 3.63 7.375 8.664H68.5c.407 2.09 1.902 3.425 4.52 3.425zM0 17.256L8.803 8.688.206 8.688.206 6 12.882 6 12.882 8.744 4.079 17.312 13 17.312 13 20 0 20zM25.52 12.267c-.306-1.951-1.495-3.39-3.875-3.39-2.209 0-3.738 1.232-4.145 3.39h8.02zm-3.5 5.822c1.869 0 3.228-.753 4.044-1.541l2.005 2.123C26.743 20.007 24.908 21 22.054 21 17.16 21 14 17.816 14 13.5 14 9.22 17.33 6 21.611 6c4.86 0 7.613 3.63 7.375 8.664H17.5c.407 2.09 1.903 3.425 4.52 3.425z" transform="translate(-250 -21) translate(250 21)"/>
                <g transform="translate(-250 -21) translate(250 21) translate(48)">
                    <mask id="3b65z1qzgb" fill="#fff">
                        <use xlink:href="#8n9f7qqima"/>
                    </mask>
                    <path fill="#02363D" d="M12.014 13.687c0-2.494-1.873-4.54-4.417-4.54-2.49 0-4.418 1.99-4.418 4.54s1.929 4.566 4.418 4.566c2.544 0 4.417-2.045 4.417-4.566m-11.798.028c0-4.484 3.326-7.286 6.989-7.286 1.846 0 3.607.813 4.641 2.103V.266h2.965V20.72h-2.965v-1.934c-1.062 1.373-2.823 2.213-4.67 2.213-3.55 0-6.96-2.829-6.96-7.284" mask="url(#3b65z1qzgb)"/>
                </g>
                <path fill="#02363D" d="M82 17.66l2.736-1.44c.77 1.324 2.025 2.102 3.649 2.102 1.71 0 2.594-.892 2.594-1.9 0-1.152-1.653-1.411-3.45-1.785-2.423-.519-4.93-1.325-4.93-4.29 0-2.275 2.137-4.376 5.5-4.347 2.652 0 4.62 1.064 5.73 2.792l-2.537 1.411c-.656-1.008-1.767-1.64-3.192-1.64-1.625 0-2.451.805-2.451 1.727 0 1.036 1.31 1.324 3.363 1.784 2.337.519 4.988 1.296 4.988 4.29 0 1.987-1.71 4.665-5.758 4.636-2.964 0-5.045-1.21-6.242-3.34M102.311 14.614L99.963 17.26 99.963 21 97 21 97 0 99.963 0 99.963 13.75 106.253 6.616 109.86 6.616 104.408 12.772 110 21 106.645 21zM38.5 6C34.962 6 32 8.411 32 12.411V21h3.033v-8.192c0-2.41 1.318-3.854 3.564-3.854s3.37 1.444 3.37 3.854V21H45v-8.589C45 8.411 42.037 6 38.5 6" transform="translate(-250 -21) translate(250 21)"/>
            </g>
        </g>
    </g>
</svg>
